<?xml version="1.0"?>
<svg xmlns="http://www.w3.org/2000/svg" xmlns:xlink="http://www.w3.org/1999/xlink" xmlns:svgjs="http://svgjs.com/svgjs" version="1.1" width="512" height="512" x="0" y="0" viewBox="0 0 512 512" style="enable-background:new 0 0 512 512" xml:space="preserve" class=""><g><g xmlns="http://www.w3.org/2000/svg"><path d="m238.113 201.886v-9.326c0-4.139 3.373-7.512 7.512-7.512s7.512 3.373 7.512 7.512v9.326h14.769v-9.326c0-4.139 3.373-7.512 7.512-7.512s7.484 3.373 7.484 7.512v10.233c5.527 1.389 10.459 4.252 14.371 8.135 5.613 5.585 9.1 13.294 9.1 21.77 0 9.015-3.969 17.462-10.773 23.301 6.805 5.868 10.773 14.315 10.773 23.33 0 8.476-3.487 16.186-9.1 21.77-3.912 3.883-8.844 6.747-14.371 8.107v10.262c0 4.139-3.346 7.483-7.484 7.483s-7.512-3.345-7.512-7.483v-9.327h-14.769v9.327c0 4.139-3.373 7.483-7.512 7.483s-7.512-3.345-7.512-7.483v-9.327h-24.973c-4.167 0-7.513-3.373-7.513-7.512s3.346-7.483 7.513-7.483h7.371v-39.146-39.119h-7.371c-4.167 0-7.513-3.373-7.513-7.512s3.346-7.483 7.513-7.483zm-93.884 258.693c-4.875 0-9.467 1.899-12.926 5.329-3.288 3.288-5.33 7.852-5.33 12.87 0 5.046 2.042 9.609 5.33 12.898 3.316 3.289 7.853 5.329 12.898 5.329 5.017 0 9.58-2.04 12.869-5.329 3.288-3.289 5.329-7.852 5.329-12.898 0-5.018-2.041-9.582-5.329-12.87-3.289-3.288-7.824-5.329-12.841-5.329zm-7.54-14.145v-38.268c-8.307-1.531-15.732-5.613-21.487-11.339-5.754-5.754-9.808-13.21-11.367-21.515h-38.24c-1.417 6.18-4.563 11.679-8.872 15.988-6.038 6.009-14.316 9.751-23.5 9.751-9.185 0-17.49-3.742-23.5-9.751-6.009-6.01-9.723-14.316-9.723-23.472 0-9.185 3.714-17.49 9.723-23.499 6.01-6.009 14.315-9.723 23.5-9.723 9.184 0 17.462 3.714 23.5 9.723 4.309 4.337 7.455 9.836 8.872 15.987h37.56v-40.904h-44.221c-4.139 0-7.483-3.345-7.483-7.512 0-4.139 3.345-7.483 7.483-7.483h44.221v-40.905h-37.56c-1.417 6.151-4.563 11.65-8.872 15.988-6.038 6.01-14.345 9.723-23.5 9.723-9.185 0-17.49-3.713-23.5-9.723-6.009-6.01-9.723-14.316-9.723-23.5 0-9.156 3.714-17.461 9.723-23.471 6.01-6.01 14.315-9.751 23.5-9.751 9.155 0 17.462 3.742 23.5 9.751 4.309 4.309 7.455 9.808 8.872 15.988h37.56v-40.905h-44.221c-4.139 0-7.483-3.373-7.483-7.512s3.345-7.512 7.483-7.512h44.221v-40.904h-37.56c-1.417 6.179-4.563 11.679-8.872 15.987-6.038 6.009-14.316 9.723-23.5 9.723-9.185 0-17.49-3.714-23.5-9.723-6.009-6.009-9.723-14.315-9.723-23.471 0-9.184 3.714-17.49 9.723-23.499 6.01-6.009 14.315-9.723 23.5-9.723 9.184 0 17.462 3.713 23.5 9.723 4.309 4.337 7.455 9.836 8.872 15.987h38.239c1.56-8.305 5.613-15.732 11.367-21.486 5.755-5.754 13.181-9.808 21.487-11.368v-38.239c-6.151-1.417-11.651-4.564-15.988-8.873-6.009-6.038-9.723-14.315-9.723-23.5 0-9.184 3.714-17.49 9.723-23.5 6.01-6.008 14.317-9.722 23.501-9.722 9.155 0 17.461 3.714 23.471 9.723 6.009 6.009 9.723 14.316 9.723 23.5s-3.714 17.461-9.723 23.5c-4.309 4.309-9.809 7.455-15.988 8.873v37.559h40.904v-44.222c0-4.139 3.373-7.483 7.512-7.483s7.512 3.345 7.512 7.483v44.221h40.905v-37.559c-6.18-1.417-11.679-4.564-15.987-8.873-6.01-6.038-9.751-14.315-9.751-23.5 0-9.184 3.741-17.49 9.751-23.5 6.008-6.008 14.314-9.722 23.47-9.722 9.185 0 17.489 3.714 23.499 9.723s9.723 14.316 9.723 23.5-3.713 17.461-9.723 23.5c-4.337 4.309-9.836 7.455-15.987 8.873v37.559h40.905v-44.222c0-4.139 3.345-7.483 7.483-7.483 4.167 0 7.512 3.345 7.512 7.483v44.221h40.904v-37.559c-6.151-1.417-11.65-4.564-15.988-8.873-6.009-6.038-9.723-14.315-9.723-23.5 0-9.184 3.714-17.49 9.723-23.5 6.01-6.008 14.316-9.722 23.5-9.722 9.155 0 17.462 3.714 23.472 9.723s9.751 14.316 9.751 23.5-3.741 17.461-9.751 23.5c-4.309 4.309-9.809 7.455-15.988 8.873v38.239c8.307 1.56 15.762 5.613 21.516 11.368 5.727 5.754 9.808 13.181 11.339 21.486h38.268c1.417-6.151 4.535-11.65 8.872-15.987 6.01-6.009 14.316-9.723 23.472-9.723 9.185 0 17.49 3.713 23.5 9.723 6.009 6.01 9.723 14.315 9.723 23.499 0 9.156-3.714 17.462-9.723 23.471-6.01 6.009-14.315 9.723-23.5 9.723-9.155 0-17.462-3.714-23.472-9.723-4.337-4.309-7.455-9.808-8.872-15.987h-37.56v40.904h44.192c4.139 0 7.512 3.373 7.512 7.512s-3.373 7.512-7.512 7.512h-44.192v40.905h37.56c1.417-6.18 4.535-11.679 8.872-15.988 6.01-6.01 14.316-9.751 23.472-9.751 9.185 0 17.49 3.742 23.5 9.751 6.007 6.009 9.721 14.314 9.721 23.47 0 9.184-3.714 17.49-9.723 23.5-6.01 6.01-14.315 9.723-23.5 9.723-9.155 0-17.462-3.713-23.472-9.723-4.337-4.337-7.455-9.836-8.872-15.988h-37.56v40.905h44.192c4.139 0 7.512 3.345 7.512 7.483 0 4.167-3.373 7.512-7.512 7.512h-44.192v40.904h37.56c1.417-6.151 4.535-11.65 8.872-15.987 6.01-6.009 14.316-9.723 23.472-9.723 9.185 0 17.49 3.714 23.5 9.723 6.009 6.009 9.723 14.315 9.723 23.499 0 9.156-3.714 17.462-9.723 23.471-6.01 6.009-14.315 9.751-23.5 9.751-9.155 0-17.462-3.742-23.472-9.751-4.337-4.309-7.455-9.808-8.872-15.988h-38.268c-1.531 8.306-5.612 15.761-11.339 21.515-5.754 5.726-13.209 9.808-21.516 11.339v38.268c6.18 1.417 11.68 4.536 15.988 8.873 6.01 6.01 9.751 14.315 9.751 23.471 0 9.184-3.741 17.49-9.751 23.5-6.01 6.009-14.316 9.723-23.472 9.723-9.185 0-17.49-3.714-23.5-9.723-6.009-6.009-9.723-14.315-9.723-23.5 0-9.156 3.714-17.461 9.723-23.471 4.338-4.337 9.837-7.456 15.988-8.873v-37.559h-40.904v44.192c0 4.139-3.345 7.512-7.512 7.512-4.139 0-7.483-3.373-7.483-7.512v-44.192h-40.905v37.559c6.151 1.417 11.65 4.536 15.987 8.873 6.01 6.01 9.723 14.315 9.723 23.471 0 9.184-3.713 17.49-9.723 23.5-6.008 6.009-14.312 9.723-23.497 9.723-9.156 0-17.462-3.714-23.471-9.723-6.01-6.009-9.751-14.315-9.751-23.5 0-9.156 3.741-17.461 9.751-23.471 4.309-4.337 9.808-7.456 15.987-8.873v-37.559h-40.905v44.192c0 4.139-3.373 7.512-7.512 7.512s-7.512-3.373-7.512-7.512v-44.192h-40.904v37.559c6.18 1.417 11.68 4.536 15.988 8.873 6.009 6.01 9.723 14.315 9.723 23.471 0 9.184-3.714 17.49-9.723 23.5-6.01 6.009-14.316 9.723-23.471 9.723-9.185 0-17.491-3.714-23.501-9.723-6.009-6.009-9.723-14.315-9.723-23.5 0-9.156 3.714-17.461 9.723-23.471 4.338-4.337 9.838-7.455 15.99-8.872zm231.167 14.145c-4.876 0-9.468 1.899-12.927 5.329-3.288 3.288-5.329 7.852-5.329 12.87 0 5.046 2.041 9.609 5.329 12.898 3.317 3.289 7.853 5.329 12.898 5.329 5.017 0 9.581-2.04 12.869-5.329s5.329-7.852 5.329-12.898c0-5.018-2.041-9.582-5.329-12.87-3.287-3.288-7.823-5.329-12.84-5.329zm-111.828 0c-4.848 0-9.468 1.899-12.897 5.329-3.316 3.288-5.329 7.852-5.329 12.87 0 5.046 2.013 9.609 5.329 12.898 3.288 3.289 7.852 5.329 12.869 5.329 5.046 0 9.581-2.04 12.897-5.329 3.288-3.289 5.329-7.852 5.329-12.898 0-5.018-2.041-9.582-5.329-12.87s-7.851-5.329-12.869-5.329zm204.55-92.779c0 4.847 1.899 9.468 5.329 12.898 3.289 3.288 7.854 5.329 12.87 5.329 5.046 0 9.609-2.041 12.898-5.329 3.288-3.289 5.328-7.852 5.328-12.87 0-5.046-2.04-9.581-5.328-12.898-3.289-3.289-7.853-5.329-12.898-5.329-5.017 0-9.581 2.04-12.87 5.329-3.288 3.288-5.329 7.852-5.329 12.87zm0-223.628c0 4.848 1.899 9.468 5.329 12.898 3.289 3.288 7.854 5.329 12.87 5.329 5.046 0 9.609-2.041 12.898-5.329 3.288-3.288 5.328-7.852 5.328-12.87 0-5.046-2.04-9.581-5.328-12.898-3.289-3.288-7.853-5.329-12.898-5.329-5.017 0-9.581 2.041-12.87 5.329-3.288 3.288-5.329 7.852-5.329 12.87zm0 111.8c0 4.876 1.899 9.468 5.329 12.926 3.289 3.288 7.854 5.329 12.87 5.329 5.046 0 9.609-2.041 12.898-5.329 3.288-3.316 5.328-7.852 5.328-12.897 0-5.018-2.04-9.581-5.328-12.869-3.289-3.316-7.853-5.329-12.898-5.329-5.017 0-9.581 2.013-12.87 5.329-3.288 3.287-5.329 7.822-5.329 12.84zm-409.128 111.884c0-4.876-1.899-9.468-5.357-12.926-3.289-3.289-7.854-5.329-12.87-5.329-5.046 0-9.581 2.04-12.898 5.329-3.288 3.316-5.329 7.852-5.329 12.898 0 5.018 2.041 9.581 5.329 12.87 3.317 3.288 7.853 5.329 12.898 5.329 5.017 0 9.581-2.041 12.87-5.329 3.288-3.289 5.329-7.824 5.357-12.842zm0-223.627c0-4.876-1.899-9.468-5.357-12.926-3.289-3.288-7.854-5.329-12.87-5.329-5.046 0-9.581 2.041-12.898 5.329-3.288 3.317-5.329 7.852-5.329 12.898 0 5.018 2.041 9.581 5.329 12.87 3.317 3.288 7.853 5.329 12.898 5.329 5.017 0 9.581-2.041 12.87-5.329 3.288-3.289 5.329-7.825 5.357-12.842zm0 111.799c0-4.847-1.899-9.468-5.357-12.897-3.289-3.316-7.854-5.329-12.87-5.329-5.046 0-9.581 2.013-12.898 5.329-3.288 3.288-5.329 7.852-5.329 12.869 0 5.046 2.041 9.581 5.329 12.897 3.317 3.288 7.853 5.329 12.898 5.329 5.017 0 9.581-2.041 12.87-5.329 3.288-3.288 5.329-7.851 5.357-12.869zm92.722-204.578c4.904-.057 9.411-1.843 12.898-5.357 3.288-3.289 5.329-7.853 5.329-12.87 0-5.045-2.041-9.581-5.329-12.898-3.289-3.289-7.852-5.329-12.869-5.329-5.046 0-9.582 2.041-12.898 5.329-3.288 3.317-5.33 7.853-5.33 12.898 0 5.017 2.042 9.581 5.33 12.87 3.288 3.287 7.852 5.328 12.869 5.357zm223.628 0c4.847 0 9.468-1.899 12.897-5.357 3.288-3.289 5.329-7.853 5.329-12.87 0-5.045-2.041-9.581-5.329-12.898-3.288-3.289-7.853-5.329-12.869-5.329-5.046 0-9.581 2.041-12.898 5.329-3.288 3.317-5.329 7.853-5.329 12.898 0 5.017 2.041 9.581 5.329 12.87 3.289 3.287 7.852 5.328 12.87 5.357zm-111.828 0c4.876 0 9.468-1.899 12.926-5.357 3.288-3.289 5.329-7.853 5.329-12.87 0-5.045-2.041-9.581-5.329-12.898-3.316-3.289-7.852-5.329-12.897-5.329-5.018 0-9.581 2.041-12.869 5.329-3.316 3.317-5.329 7.853-5.329 12.898 0 5.017 2.013 9.581 5.329 12.87 3.287 3.287 7.822 5.328 12.84 5.357zm-87.79 241.628c0 4.139-3.345 7.512-7.483 7.512-4.167 0-7.512-3.373-7.512-7.512v-132.38c0-4.167 3.345-7.512 7.512-7.512h190.631c4.139 0 7.483 3.345 7.483 7.512v24.265c0 4.139-3.345 7.484-7.483 7.484s-7.512-3.345-7.512-7.484v-16.781h-175.636zm175.636-74.156c0-4.139 3.373-7.483 7.512-7.483s7.483 3.345 7.483 7.483v132.408c0 4.139-3.345 7.483-7.483 7.483h-190.632c-4.167 0-7.512-3.345-7.512-7.483v-24.265c0-4.139 3.345-7.512 7.512-7.512 4.139 0 7.483 3.373 7.483 7.512v16.753h175.637zm24.01-100.772h-223.627c-7.172 0-13.664 2.919-18.399 7.653-4.733 4.734-7.653 11.225-7.653 18.397v223.628c0 7.144 2.92 13.663 7.653 18.369 4.734 4.734 11.227 7.682 18.399 7.682h223.627c7.143 0 13.663-2.948 18.368-7.682 4.734-4.706 7.683-11.225 7.683-18.369v-223.628c0-7.172-2.948-13.663-7.683-18.397-4.705-4.734-11.225-7.653-18.368-7.653zm-92.411 145.362h-39.883v31.635h39.883c4.422 0 8.419-1.786 11.311-4.649 2.863-2.863 4.648-6.831 4.648-11.168 0-4.366-1.785-8.306-4.648-11.169-2.892-2.863-6.889-4.649-11.311-4.649zm0-46.631h-39.883v31.635h39.883c4.422 0 8.419-1.786 11.311-4.649 2.863-2.863 4.648-6.832 4.648-11.169 0-4.365-1.785-8.306-4.648-11.168-2.892-2.863-6.889-4.649-11.311-4.649z" fill="#95e1d3" data-original="#000000" style="" class=""/></g></g></svg>
